<?xml version="1.0" encoding="utf-8"?>
<!-- Generator: Adobe Illustrator 22.0.1, SVG Export Plug-In . SVG Version: 6.00 Build 0)  -->
<svg version="1.1" id="Layer_1" xmlns="http://www.w3.org/2000/svg" fill="#e8e8e8" xmlns:xlink="http://www.w3.org/1999/xlink" x="0px" y="0px"
	 viewBox="0 0 44 30" style="enable-background:new 0 0 44 30;" xml:space="preserve">
<path d="M1.2,22c-0.3-0.6-0.5-1.3-0.6-2H44c0,0.7-0.1,1.3-0.2,2H1.2z M8.3,2c2.3-1.3,4.9-2,7.7-2c2.8,0,5.4,0.7,7.7,2H8.3z M0.1,14
	c0.1-0.7,0.2-1.3,0.4-2h40.4c0.6,0.6,1,1.3,1.5,2H0.1z M1.2,10c0.3-0.7,0.6-1.4,1-2h27.7c0,0.1,0.1,0.1,0.1,0.2
	C30.6,8.1,31.3,8,32,8c2.5,0,4.7,0.7,6.6,2H1.2z M3.5,6c0.6-0.7,1.2-1.4,1.9-2h21.1c0.7,0.6,1.3,1.3,1.9,2H3.5z M43.8,18H0.1
	C0.1,17.3,0,16.7,0,16h43.3C43.5,16.6,43.7,17.3,43.8,18z M43.3,24c-0.2,0.7-0.6,1.4-0.9,2H3.5c-0.5-0.6-1-1.3-1.4-2H43.3z M5.4,28
	h35.5c-0.7,0.8-1.4,1.4-2.3,2H8.3C7.2,29.4,6.3,28.8,5.4,28z"/>
</svg>
