<?xml version="1.0" encoding="utf-8"?>
<!-- Generator: Adobe Illustrator 22.0.1, SVG Export Plug-In . SVG Version: 6.00 Build 0)  -->
<svg version="1.1" id="Layer_1" xmlns="http://www.w3.org/2000/svg" fill="#e8e8e8" xmlns:xlink="http://www.w3.org/1999/xlink" x="0px" y="0px"
	 viewBox="0 0 54 48" style="enable-background:new 0 0 54 48;" xml:space="preserve">
<path d="M52,26h-4c-1.1,0-2-0.9-2-2c0-1.1,0.9-2,2-2h4c1.1,0,2,0.9,2,2C54,25.1,53.1,26,52,26z M44.1,12.7c-0.8,0.8-2,0.8-2.8,0
	c-0.8-0.8-0.8-2,0-2.8L44.1,7c0.8-0.8,2-0.8,2.8,0c0.8,0.8,0.8,2,0,2.8L44.1,12.7z M41.2,28.3L41.2,28.3c1.7,2.1,2.8,4.8,2.8,7.7
	c0,6.6-5.4,12-12,12c-2.8,0-12.8,0-16,0C7.2,48,0,40.8,0,32s7.2-16,16-16c1.6,0,3.1,0.2,4.5,0.7c2.2-2.8,5.6-4.7,9.5-4.7
	c6.6,0,12,5.4,12,12C42,25.5,41.7,27,41.2,28.3z M4,32c0,6.6,5.4,12,12,12c3.6,0,13,0,16,0c4.4,0,8-3.6,8-8c0-4.4-3.6-8-8-8
	c-1.6,0-3.1,0.5-4.3,1.3C26.4,24,21.7,20,16,20C9.4,20,4,25.4,4,32z M30,16c-2.2,0-4.2,0.9-5.7,2.3c2.3,1.4,4.3,3.5,5.6,5.9
	c0.7-0.1,1.3-0.2,2-0.2c2.1,0,4.1,0.6,5.9,1.5l0,0c0.1-0.5,0.2-1,0.2-1.5C38,19.6,34.4,16,30,16z M30,8c-1.1,0-2-0.9-2-2V2
	c0-1.1,0.9-2,2-2c1.1,0,2,0.9,2,2v4C32,7.1,31.1,8,30,8z M15.9,12.7L13,9.9c-0.8-0.8-0.8-2,0-2.8c0.8-0.8,2-0.8,2.8,0l2.8,2.8
	c0.8,0.8,0.8,2,0,2.8C17.9,13.5,16.6,13.5,15.9,12.7z"/>
</svg>
