<?xml version="1.0" encoding="utf-8"?>
<!-- Generator: Adobe Illustrator 22.0.1, SVG Export Plug-In . SVG Version: 6.00 Build 0)  -->
<svg version="1.1" id="Layer_1" xmlns="http://www.w3.org/2000/svg" fill="#adadad" xmlns:xlink="http://www.w3.org/1999/xlink" x="0px" y="0px"
	 viewBox="0 0 45 39" style="enable-background:new 0 0 45 39;" xml:space="preserve">
<path d="M41.8,20.1L41.8,20.1c1.4,1.9,2.2,4.3,2.2,6.9c0,6.6-5.4,12-12,12c-2.8,0-12.8,0-16,0C7.2,39,0,31.8,0,23S7.2,7,16,7
	c2,0,3.9,0.4,5.7,1l0,0c1.6-4.7,6.1-8,11.3-8c0.8,0,1.5,0.1,2.2,0.2C35.1,0.8,35,1.4,35,2c0,4.4,3.6,8,8,8c0.6,0,1.2-0.1,1.8-0.2
	c0.1,0.7,0.2,1.5,0.2,2.2C45,15.1,43.8,18,41.8,20.1z M4,23c0,6.6,5.4,12,12,12c3.6,0,13,0,16,0c4.4,0,8-3.6,8-8c0-4.4-3.6-8-8-8
	c-1.6,0-3.1,0.5-4.3,1.3C26.4,15,21.7,11,16,11C9.4,11,4,16.4,4,23z M23.5,8.9C23.5,8.9,23.5,8.9,23.5,8.9
	C23.5,8.9,23.5,8.9,23.5,8.9z M31.2,4.2C28.3,4.9,26,7.1,25.3,10l0,0c1.9,1.4,3.5,3.2,4.7,5.2c0.7-0.1,1.3-0.2,2-0.2
	c2.6,0,5,0.8,7,2.3l0,0c0.9-1,1.5-2.2,1.8-3.5C35.9,12.9,32.1,9.1,31.2,4.2z"/>
</svg>
