<?xml version="1.0" encoding="utf-8"?>
<!-- Generator: Adobe Illustrator 22.0.1, SVG Export Plug-In . SVG Version: 6.00 Build 0)  -->
<svg version="1.1" id="Layer_1" xmlns="http://www.w3.org/2000/svg" xmlns:xlink="http://www.w3.org/1999/xlink" x="0px" y="0px"
	 viewBox="0 0 44.5 44.3" fill="#969696" xml:space="preserve">
<path d="M36.3,31.5v-4.4c2.4-1.4,4-4,4-6.9c0-4.4-3.6-8-8-8c-1.6,0-3.1,0.5-4.3,1.3c-1.2-5.3-6-9.3-11.7-9.3c-6.6,0-12,5.4-12,12
	c0,3.5,1.6,6.7,4,8.9V30c-4.8-2.8-8-7.9-8-13.8c0-8.8,7.2-16,16-16c6,0,11.2,3.3,14,8.2c0.7-0.1,1.3-0.2,2-0.2c6.6,0,12,5.4,12,12
	C44.3,25.4,40.9,29.9,36.3,31.5z M14.3,20.2c1.1,0,2,0.9,2,2v16c0,1.1-0.9,2-2,2s-2-0.9-2-2v-16C12.3,21.1,13.2,20.2,14.3,20.2z
	 M22.3,24.2c1.1,0,2,0.9,2,2v16c0,1.1-0.9,2-2,2s-2-0.9-2-2v-16C20.3,25.1,21.2,24.2,22.3,24.2z M30.3,20.2c1.1,0,2,0.9,2,2v16
	c0,1.1-0.9,2-2,2s-2-0.9-2-2v-16C28.3,21.1,29.2,20.2,30.3,20.2z"/>
</svg>
