<?xml version="1.0" encoding="utf-8"?>
<!-- Generator: Adobe Illustrator 22.0.1, SVG Export Plug-In . SVG Version: 6.00 Build 0)  -->
<svg version="1.1" id="Layer_1" xmlns="http://www.w3.org/2000/svg" fill="#969696" xmlns:xlink="http://www.w3.org/1999/xlink" x="0px" y="0px"
	 viewBox="0 0 44 40.1" style="enable-background:new 0 0 44 40.1;" xml:space="preserve">
<path d="M36,31.3v-4.4c2.4-1.4,4-4,4-6.9c0-4.4-3.6-8-8-8c-1.6,0-3.1,0.5-4.3,1.3C26.4,8,21.7,4,16,4C9.4,4,4,9.4,4,16
	c0,3.5,1.5,6.7,4,8.9v4.9C3.2,27.1,0,21.9,0,16C0,7.2,7.2,0,16,0c6,0,11.2,3.3,14,8.2C30.6,8.1,31.3,8,32,8c6.6,0,12,5.4,12,12
	C44,25.2,40.7,29.7,36,31.3z M14,24c1.1,0,2,0.9,2,2c0,1.1-0.9,2-2,2c-1.1,0-2-0.9-2-2C12,24.9,12.9,24,14,24z M14,32
	c1.1,0,2,0.9,2,2c0,1.1-0.9,2-2,2c-1.1,0-2-0.9-2-2C12,32.9,12.9,32,14,32z M22,28c1.1,0,2,0.9,2,2c0,1.1-0.9,2-2,2
	c-1.1,0-2-0.9-2-2C20,28.9,20.9,28,22,28z M22,36c1.1,0,2,0.9,2,2c0,1.1-0.9,2-2,2c-1.1,0-2-0.9-2-2C20,36.9,20.9,36,22,36z M30,24
	c1.1,0,2,0.9,2,2c0,1.1-0.9,2-2,2c-1.1,0-2-0.9-2-2C28,24.9,28.9,24,30,24z M30,32c1.1,0,2,0.9,2,2c0,1.1-0.9,2-2,2
	c-1.1,0-2-0.9-2-2C28,32.9,28.9,32,30,32z"/>
</svg>
