<?xml version="1.0" encoding="utf-8"?>
<!-- Generator: Adobe Illustrator 22.0.1, SVG Export Plug-In . SVG Version: 6.00 Build 0)  -->
<svg version="1.1" id="Layer_1" xmlns="http://www.w3.org/2000/svg" fill="#adadad" xmlns:xlink="http://www.w3.org/1999/xlink" x="0px" y="0px"
	 viewBox="0 0 44 28" style="enable-background:new 0 0 44 28;" xml:space="preserve">
<path d="M38,16L38,16h-3c-1.1,0-2-0.9-2-2s0.9-2,2-2h3c1.1,0,2-0.9,2-2c0-1.1-0.9-2-2-2c-1.1,0-2-0.9-2-2s0.9-2,2-2
	c0.1,0,0.3,0,0.4,0c3.1,0.2,5.6,2.8,5.6,6C44,13.3,41.3,16,38,16z M28,12h-2h-7H6c-1.1,0-2,0.9-2,2s0.9,2,2,2h2h4h3h4h3h4h2
	c3.3,0,6,2.7,6,6c0,3.2-2.5,5.7-5.6,6c-0.1,0-0.3,0-0.4,0c-1.1,0-2-0.9-2-2c0-1.1,0.9-2,2-2c1.1,0,2-0.9,2-2s-0.9-2-2-2h-2h-4h-3h-4
	h-3H8H6c-3.3,0-6-2.7-6-6c0-3.2,2.5-5.7,5.6-6C5.7,8,5.9,8,6,8l0,0h13h7h2c1.1,0,2-0.9,2-2s-0.9-2-2-2c-1.1,0-2-0.9-2-2
	c0-1.1,0.9-2,2-2c0.1,0,0.3,0,0.4,0C31.5,0.3,34,2.8,34,6C34,9.3,31.3,12,28,12z"/>
</svg>
