<?xml version="1.0" encoding="iso-8859-1"?>
<!-- Generator: Adobe Illustrator 19.0.0, SVG Export Plug-In . SVG Version: 6.00 Build 0)  -->
<svg version="1.1" id="Capa_1" xmlns="http://www.w3.org/2000/svg" xmlns:xlink="http://www.w3.org/1999/xlink" x="0px" y="0px"
	 viewBox="0 0 512.001 512.001" style="enable-background:new 0 0 512.001 512.001;" xml:space="preserve">
<linearGradient id="SVGID_1_" gradientUnits="userSpaceOnUse" x1="7.738627e-005" y1="258.0004" x2="512.0007" y2="258.0004" gradientTransform="matrix(1 0 0 -1 0 514.0007)">
	<stop  offset="0" style="stop-color:#80D8FF"/>
	<stop  offset="1" style="stop-color:#EA80FC"/>
</linearGradient>
<path style="fill:url(#SVGID_1_);" d="M265.399,373.128c7.81,7.81,7.81,20.473,0,28.283l-94.907,94.893
	c-20.932,20.93-54.813,20.927-75.742,0l-79.089-79.078c-20.881-20.878-20.881-54.851,0-75.729l166.088-166.063
	c20.883-20.878,54.858-20.879,75.741,0l55.363,55.354c7.81,7.81,7.811,20.473,0,28.283c-7.811,7.81-20.476,7.81-28.287,0
	l-55.364-55.354c-5.283-5.282-13.88-5.283-19.165,0L43.95,369.779c-5.285,5.283-5.285,13.88,0,19.164l79.089,79.078
	c5.297,5.296,13.869,5.296,19.166,0l94.907-94.893C244.923,365.318,257.588,365.318,265.399,373.128z M496.34,94.774l-79.089-79.078
	c-20.929-20.927-54.81-20.93-75.742,0l-94.907,94.893c-7.81,7.81-7.81,20.473,0,28.283c7.811,7.81,20.477,7.81,28.288,0
	l94.907-94.893c5.297-5.296,13.869-5.296,19.166,0l79.089,79.078c5.285,5.283,5.285,13.88,0,19.164L301.965,308.284
	c-5.284,5.284-13.881,5.282-19.165,0l-55.364-55.354c-7.811-7.81-20.476-7.81-28.287,0c-7.811,7.81-7.81,20.473,0,28.283
	l55.363,55.354c20.882,20.878,54.857,20.879,75.741,0l166.088-166.063C517.221,149.625,517.221,115.653,496.34,94.774z"/>
<g>
</g>
<g>
</g>
<g>
</g>
<g>
</g>
<g>
</g>
<g>
</g>
<g>
</g>
<g>
</g>
<g>
</g>
<g>
</g>
<g>
</g>
<g>
</g>
<g>
</g>
<g>
</g>
<g>
</g>
</svg>
